<?xml version="1.0" encoding="UTF-8"?>
<!DOCTYPE svg PUBLIC "-//W3C//DTD SVG 1.1//EN" "http://www.w3.org/Graphics/SVG/1.1/DTD/svg11.dtd">
<svg xmlns="http://www.w3.org/2000/svg" version="1.1" width="1498px" height="363px" style="shape-rendering:geometricPrecision; text-rendering:geometricPrecision; image-rendering:optimizeQuality; fill-rule:evenodd; clip-rule:evenodd" xmlns:xlink="http://www.w3.org/1999/xlink">
<g><path style="opacity:0.964" fill="#fefffe" d="M 913.5,52.5 C 922.376,51.9781 930.709,53.8115 938.5,58C 947.438,66.0973 949.938,75.9306 946,87.5C 940.359,98.58 931.192,103.913 918.5,103.5C 893.386,101.259 884.886,88.2589 893,64.5C 898.305,57.6551 905.139,53.6551 913.5,52.5 Z"/></g>
<g><path style="opacity:0.975" fill="#fefffe" d="M 1082.5,71.5 C 1099.17,71.5 1115.83,71.5 1132.5,71.5C 1132.5,145.5 1132.5,219.5 1132.5,293.5C 1117.17,293.5 1101.83,293.5 1086.5,293.5C 1086.07,288.167 1085.57,282.834 1085,277.5C 1069.47,292.121 1050.97,298.621 1029.5,297C 1001.01,293.495 981.515,278.328 971,251.5C 960.688,221.605 962.688,192.605 977,164.5C 997.782,134.015 1025.95,124.182 1061.5,135C 1069.08,138.037 1075.92,142.204 1082,147.5C 1082.5,122.169 1082.67,96.8355 1082.5,71.5 Z M 1040.5,171.5 C 1063.87,169.263 1078.03,179.596 1083,202.5C 1086.55,220.158 1082.38,235.658 1070.5,249C 1055.82,258.997 1041.15,258.997 1026.5,249C 1017.35,239.223 1012.68,227.557 1012.5,214C 1012.29,199.754 1017.29,187.754 1027.5,178C 1031.65,175.26 1035.98,173.093 1040.5,171.5 Z"/></g>
<g><path style="opacity:0.994" fill="#fefffe" d="M -0.5,128.5 C -0.5,111.833 -0.5,95.1667 -0.5,78.5C 0.646381,76.525 2.31305,75.025 4.5,74C 61.1667,73.3333 117.833,73.3333 174.5,74C 176.667,74.8333 178.167,76.3333 179,78.5C 179.667,95.1667 179.667,111.833 179,128.5C 177.833,130.333 176.333,131.833 174.5,133C 118.167,133.667 61.8333,133.667 5.5,133C 3.03244,132.021 1.03244,130.521 -0.5,128.5 Z"/></g>
<g><path style="opacity:0.98" fill="#fefffe" d="M 529.5,130.5 C 534.844,130.334 540.177,130.501 545.5,131C 549.461,131.404 553.128,132.57 556.5,134.5C 552.083,152.26 547.416,169.927 542.5,187.5C 525.849,178.977 511.016,181.31 498,194.5C 496.667,197.167 495.333,199.833 494,202.5C 492.539,232.792 492.039,263.125 492.5,293.5C 476.167,293.5 459.833,293.5 443.5,293.5C 443.5,240.167 443.5,186.833 443.5,133.5C 458.833,133.5 474.167,133.5 489.5,133.5C 490.192,141.142 490.692,148.808 491,156.5C 500.654,142.937 513.487,134.271 529.5,130.5 Z"/></g>
<g><path style="opacity:0.976" fill="#fefffe" d="M 621.5,130.5 C 655.816,127.905 681.65,141.239 699,170.5C 706.578,187.786 709.078,205.786 706.5,224.5C 670.165,224.333 633.832,224.5 597.5,225C 603.054,240.629 614.054,249.962 630.5,253C 648.384,256.405 664.217,252.238 678,240.5C 685.876,251.089 693.376,261.922 700.5,273C 686.421,285.826 669.754,293.492 650.5,296C 617.374,300.628 589.541,290.794 567,266.5C 552.577,246.806 547.244,224.806 551,200.5C 555.395,171.118 570.895,149.951 597.5,137C 605.381,133.866 613.381,131.7 621.5,130.5 Z M 625.5,171.5 C 639.935,169.469 651.101,174.469 659,186.5C 660.727,189.618 661.561,192.951 661.5,196.5C 640.164,196.667 618.831,196.5 597.5,196C 602.077,182.249 611.41,174.082 625.5,171.5 Z"/></g>
<g><path style="opacity:0.976" fill="#fefffe" d="M 1219.5,130.5 C 1252.7,127.517 1278.2,139.851 1296,167.5C 1304.87,185.487 1308.04,204.487 1305.5,224.5C 1269.17,224.5 1232.83,224.5 1196.5,224.5C 1201.4,240.891 1212.4,250.391 1229.5,253C 1247.34,256.414 1263.18,252.247 1277,240.5C 1284.5,251.333 1292,262.167 1299.5,273C 1276.72,292.283 1250.39,299.95 1220.5,296C 1178.83,289.327 1154.99,265.161 1149,223.5C 1146.33,194.182 1155.49,169.348 1176.5,149C 1189.25,138.951 1203.59,132.784 1219.5,130.5 Z M 1224.5,171.5 C 1243.94,169.526 1255.94,177.859 1260.5,196.5C 1239.17,196.5 1217.83,196.5 1196.5,196.5C 1200.18,181.815 1209.52,173.482 1224.5,171.5 Z"/></g>
<g><path style="opacity:0.979" fill="#fefffe" d="M 1387.5,130.5 C 1421.74,127.292 1449.57,138.958 1471,165.5C 1490.86,198.971 1490.19,231.971 1469,264.5C 1446.78,290.359 1418.61,300.859 1384.5,296C 1338.92,287.261 1314.92,259.761 1312.5,213.5C 1314.08,173.488 1333.74,146.988 1371.5,134C 1376.95,132.745 1382.29,131.578 1387.5,130.5 Z M 1392.5,172.5 C 1415.95,171.634 1430.12,182.634 1435,205.5C 1437.74,223.291 1432.24,237.791 1418.5,249C 1398.35,259.253 1381.52,255.42 1368,237.5C 1361.08,222.334 1360.74,207 1367,191.5C 1372.94,181.623 1381.44,175.29 1392.5,172.5 Z"/></g>
<g><path style="opacity:0.975" fill="#fefffe" d="M 704.5,133.5 C 722.5,133.5 740.5,133.5 758.5,133.5C 769.161,167.316 780.327,200.982 792,234.5C 803.333,201.167 814.667,167.833 826,134.5C 843.769,133.175 861.602,133.175 879.5,134.5C 856.236,187.125 833.069,239.792 810,292.5C 796.896,293.822 783.729,293.822 770.5,292.5C 748.1,239.626 726.1,186.626 704.5,133.5 Z"/></g>
<g><path style="opacity:0.975" fill="#fefffe" d="M 894.5,133.5 C 910.833,133.5 927.167,133.5 943.5,133.5C 943.5,186.833 943.5,240.167 943.5,293.5C 927.167,293.5 910.833,293.5 894.5,293.5C 894.5,240.167 894.5,186.833 894.5,133.5 Z"/></g>
<g><path style="opacity:0.998" fill="#fefffe" d="M 74.5,153.5 C 131.168,153.333 187.834,153.5 244.5,154C 246.667,154.833 248.167,156.333 249,158.5C 249.667,175.167 249.667,191.833 249,208.5C 248.167,210.667 246.667,212.167 244.5,213C 187.833,213.667 131.167,213.667 74.5,213C 72.3333,212.167 70.8333,210.667 70,208.5C 69.3333,191.833 69.3333,175.167 70,158.5C 71.025,156.313 72.525,154.646 74.5,153.5 Z"/></g>
<g><path style="opacity:0.986" fill="#fefffe" d="M 144.5,233.5 C 201.168,233.333 257.834,233.5 314.5,234C 316.667,234.833 318.167,236.333 319,238.5C 319.667,255.167 319.667,271.833 319,288.5C 317.74,291.428 315.573,293.261 312.5,294C 257.167,294.667 201.833,294.667 146.5,294C 143.417,293.214 141.251,291.381 140,288.5C 139.333,271.833 139.333,255.167 140,238.5C 141.025,236.313 142.525,234.646 144.5,233.5 Z"/></g>
</svg>
