<svg width="1590" height="363" viewBox="0 0 1590 363" fill="none" xmlns="http://www.w3.org/2000/svg">
<path d="M420.043 294V134.7H465.643L467.743 186.6L458.743 176.7C461.143 168.1 465.043 160.4 470.443 153.6C476.043 146.8 482.543 141.4 489.943 137.4C497.343 133.4 505.243 131.4 513.643 131.4C517.243 131.4 520.543 131.7 523.543 132.3C526.743 132.9 529.643 133.6 532.243 134.4L519.043 187.5C516.843 186.1 513.843 185 510.043 184.2C506.443 183.2 502.643 182.7 498.643 182.7C494.243 182.7 490.143 183.5 486.343 185.1C482.543 186.5 479.343 188.6 476.743 191.4C474.143 194.2 472.043 197.5 470.443 201.3C469.043 205.1 468.343 209.4 468.343 214.2V294H420.043ZM613.728 297C596.128 297 580.828 293.5 567.828 286.5C554.828 279.3 544.728 269.6 537.528 257.4C530.328 245 526.728 230.9 526.728 215.1C526.728 202.9 528.728 191.7 532.728 181.5C536.728 171.3 542.328 162.5 549.528 155.1C556.728 147.5 565.228 141.7 575.028 137.7C585.028 133.5 595.928 131.4 607.728 131.4C618.928 131.4 629.128 133.4 638.328 137.4C647.728 141.4 655.828 147 662.628 154.2C669.428 161.4 674.628 169.9 678.228 179.7C681.828 189.5 683.428 200.2 683.028 211.8L682.728 224.7H555.828L548.928 197.7H643.728L638.628 203.4V197.4C638.228 192.4 636.628 188 633.828 184.2C631.228 180.2 627.728 177.1 623.328 174.9C618.928 172.7 613.928 171.6 608.328 171.6C600.528 171.6 593.828 173.2 588.228 176.4C582.828 179.4 578.728 183.9 575.928 189.9C573.128 195.7 571.728 202.9 571.728 211.5C571.728 220.3 573.528 228 577.128 234.6C580.928 241 586.328 246 593.328 249.6C600.528 253.2 609.028 255 618.828 255C625.628 255 631.628 254 636.828 252C642.228 250 648.028 246.6 654.228 241.8L676.728 273.6C670.528 279 663.928 283.4 656.928 286.8C649.928 290.2 642.728 292.7 635.328 294.3C628.128 296.1 620.928 297 613.728 297ZM747.58 294L680.98 134.7H734.08L773.68 253.8L761.98 255L802.78 134.7H855.28L785.38 294H747.58ZM871.02 294V134.7H919.02V294H871.02ZM895.02 103.2C886.02 103.2 878.92 101.1 873.72 96.9C868.72 92.5 866.22 86.3 866.22 78.3C866.22 71.1 868.82 65.2 874.02 60.6C879.22 56 886.22 53.7 895.02 53.7C904.02 53.7 911.02 55.9 916.02 60.3C921.02 64.5 923.52 70.5 923.52 78.3C923.52 85.7 920.92 91.7 915.72 96.3C910.72 100.9 903.82 103.2 895.02 103.2ZM1012.42 297.3C998.621 297.3 986.321 293.8 975.521 286.8C964.921 279.6 956.521 269.8 950.321 257.4C944.121 244.8 941.021 230.5 941.021 214.5C941.021 198.5 944.121 184.3 950.321 171.9C956.521 159.3 965.021 149.4 975.821 142.2C986.621 135 999.021 131.4 1013.02 131.4C1020.22 131.4 1027.12 132.5 1033.72 134.7C1040.32 136.9 1046.32 139.9 1051.72 143.7C1057.12 147.5 1061.52 151.9 1064.92 156.9C1068.32 161.7 1070.32 166.7 1070.92 171.9L1059.52 174.6V72H1107.82V294H1063.12L1060.42 257.7L1070.02 259.2C1069.42 264.2 1067.42 269 1064.02 273.6C1060.82 278.2 1056.62 282.3 1051.42 285.9C1046.22 289.3 1040.22 292 1033.42 294C1026.82 296.2 1019.82 297.3 1012.42 297.3ZM1024.72 257.4C1032.12 257.4 1038.52 255.6 1043.92 252C1049.32 248.4 1053.42 243.4 1056.22 237C1059.22 230.6 1060.72 223.1 1060.72 214.5C1060.72 205.7 1059.22 198.1 1056.22 191.7C1053.42 185.3 1049.32 180.3 1043.92 176.7C1038.52 173.1 1032.12 171.3 1024.72 171.3C1017.32 171.3 1010.92 173.1 1005.52 176.7C1000.32 180.3 996.221 185.3 993.221 191.7C990.221 198.1 988.721 205.7 988.721 214.5C988.721 223.1 990.221 230.6 993.221 237C996.221 243.4 1000.32 248.4 1005.52 252C1010.92 255.6 1017.32 257.4 1024.72 257.4ZM1212.31 297C1194.71 297 1179.41 293.5 1166.41 286.5C1153.41 279.3 1143.31 269.6 1136.11 257.4C1128.91 245 1125.31 230.9 1125.31 215.1C1125.31 202.9 1127.31 191.7 1131.31 181.5C1135.31 171.3 1140.91 162.5 1148.11 155.1C1155.31 147.5 1163.81 141.7 1173.61 137.7C1183.61 133.5 1194.51 131.4 1206.31 131.4C1217.51 131.4 1227.71 133.4 1236.91 137.4C1246.31 141.4 1254.41 147 1261.21 154.2C1268.01 161.4 1273.21 169.9 1276.81 179.7C1280.41 189.5 1282.01 200.2 1281.61 211.8L1281.31 224.7H1154.41L1147.51 197.7H1242.31L1237.21 203.4V197.4C1236.81 192.4 1235.21 188 1232.41 184.2C1229.81 180.2 1226.31 177.1 1221.91 174.9C1217.51 172.7 1212.51 171.6 1206.91 171.6C1199.11 171.6 1192.41 173.2 1186.81 176.4C1181.41 179.4 1177.31 183.9 1174.51 189.9C1171.71 195.7 1170.31 202.9 1170.31 211.5C1170.31 220.3 1172.11 228 1175.71 234.6C1179.51 241 1184.91 246 1191.91 249.6C1199.11 253.2 1207.61 255 1217.41 255C1224.21 255 1230.21 254 1235.41 252C1240.81 250 1246.61 246.6 1252.81 241.8L1275.31 273.6C1269.11 279 1262.51 283.4 1255.51 286.8C1248.51 290.2 1241.31 292.7 1233.91 294.3C1226.71 296.1 1219.51 297 1212.31 297ZM1375.19 297C1358.59 297 1343.79 293.4 1330.79 286.2C1317.99 279 1307.79 269.2 1300.19 256.8C1292.79 244.4 1289.09 230.2 1289.09 214.2C1289.09 198.2 1292.79 184 1300.19 171.6C1307.79 159.2 1317.99 149.4 1330.79 142.2C1343.79 135 1358.59 131.4 1375.19 131.4C1391.79 131.4 1406.49 135 1419.29 142.2C1432.29 149.4 1442.49 159.2 1449.89 171.6C1457.29 184 1460.99 198.2 1460.99 214.2C1460.99 230.2 1457.29 244.4 1449.89 256.8C1442.49 269.2 1432.29 279 1419.29 286.2C1406.49 293.4 1391.79 297 1375.19 297ZM1375.19 255.6C1382.39 255.6 1388.79 253.8 1394.39 250.2C1399.99 246.6 1404.39 241.7 1407.59 235.5C1410.79 229.3 1412.29 222.2 1412.09 214.2C1412.29 206.2 1410.79 199.1 1407.59 192.9C1404.39 186.5 1399.99 181.5 1394.39 177.9C1388.79 174.3 1382.39 172.5 1375.19 172.5C1367.99 172.5 1361.49 174.3 1355.69 177.9C1350.09 181.5 1345.69 186.5 1342.49 192.9C1339.29 199.1 1337.79 206.2 1337.99 214.2C1337.79 222.2 1339.29 229.3 1342.49 235.5C1345.69 241.7 1350.09 246.6 1355.69 250.2C1361.49 253.8 1367.99 255.6 1375.19 255.6Z" fill="#111111"/>
<rect y="71" width="178.987" height="59.7841" rx="9.34127" fill="#111111"/>
<path d="M69.606 160.341C69.606 155.182 73.7882 151 78.9472 151H239.252C244.411 151 248.593 155.182 248.593 160.341V201.659C248.593 206.818 244.411 211 239.252 211H78.9472C73.7882 211 69.606 206.818 69.606 201.659V160.341Z" fill="#111111"/>
<rect x="139.212" y="231" width="178.987" height="60.2381" rx="9.34127" fill="#111111"/>
</svg>
